<svg id="Layer_1" data-name="Layer 1" xmlns="http://www.w3.org/2000/svg" xmlns:xlink="http://www.w3.org/1999/xlink" width="1380" height="760" viewBox="0 0 1380 760"><defs><style>.cls-1,.cls-4,.cls-5{isolation:isolate;}.cls-1{opacity:0.6;filter:url(#AI_GaussianBlur_4);}.cls-2{fill:url(#linear-gradient);}.cls-3{fill-opacity:0;}.cls-5{fill:#fff;opacity:0.5;}</style><filter id="AI_GaussianBlur_4" name="AI_GaussianBlur_4"><feGaussianBlur stdDeviation="4"/></filter><linearGradient id="linear-gradient" x1="14.69" y1="369.85" x2="1350.37" y2="369.85" gradientUnits="userSpaceOnUse"><stop offset="0" stop-color="#e7edf3"/><stop offset="0.14" stop-color="#c2d4de"/><stop offset="0.49" stop-color="#6c9bad"/><stop offset="0.49" stop-color="#6c9bad"/><stop offset="0.69" stop-color="#51889b"/><stop offset="0.87" stop-color="#417d91"/><stop offset="1" stop-color="#3b798d"/></linearGradient></defs><g id="Rectangle_22" data-name="Rectangle 22" class="cls-1"><rect x="34.98" y="37.31" width="1335.68" height="705.77" rx="68"/></g><rect id="Rectangle_18" data-name="Rectangle 18" class="cls-2" x="14.69" y="16.96" width="1335.68" height="705.77" rx="68"/><rect id="Rectangle_19" data-name="Rectangle 19" x="14.69" y="503.5" width="1335.68" height="94.35"/><g id="Layer_2" data-name="Layer 2"><g id="gift"><rect id="Rectangle_20" data-name="Rectangle 20" class="cls-3" x="499.39" y="37.31" width="291.37" height="291.37"/><path id="Path_9" data-name="Path 9" d="M732.49,122.29h-4.74a36.22,36.22,0,0,0,2.31-12.14,37.4,37.4,0,0,0-38.13-36.42,54.15,54.15,0,0,0-46.86,29.14,54.15,54.15,0,0,0-46.86-29.14,37.39,37.39,0,0,0-38.12,36.42,36.45,36.45,0,0,0,2.3,12.14h-4.73a24.29,24.29,0,0,0-21.88,26.47l0,.24v43.71A25.25,25.25,0,0,0,554,219.42v53.05a21.25,21.25,0,0,0,22,19.79H714.15a21.25,21.25,0,0,0,22-20.27V219.42a25.25,25.25,0,0,0,18.21-26.71V149a24.28,24.28,0,0,0-21.61-26.68ZM730.06,149v43.71a7.08,7.08,0,0,1,0,2.43H657.21V146.58h72.85a7,7,0,0,1,0,2.42ZM691.94,98a13.12,13.12,0,0,1,13.84,12.14,13.11,13.11,0,0,1-13.84,12.14H662.07A35.59,35.59,0,0,1,691.93,98ZM584.37,110.15A13.11,13.11,0,0,1,598.21,98,35.58,35.58,0,0,1,628,122.29H598.21a13.11,13.11,0,0,1-13.84-12.14ZM560.09,149a6.56,6.56,0,0,1,0-2.42h72.84v48.56H560.09a6.62,6.62,0,0,1,0-2.43Zm18.21,70.42h54.63V268H578.3ZM657.21,268V219.42h54.63V268Z"/></g></g><g id="GAVEKORT" class="cls-4"><g class="cls-4"><path d="M463.71,432.56q-2.64,1.41-5.44,2.61a43.86,43.86,0,0,1-6.18,2.07,55.76,55.76,0,0,1-7.52,1.37,80.4,80.4,0,0,1-9.42.49,32.91,32.91,0,0,1-10.45-1.56,29.1,29.1,0,0,1-8.35-4.32,29.47,29.47,0,0,1-6.35-6.55,38.27,38.27,0,0,1-4.42-8.2,48,48,0,0,1-2.59-9.3,57.19,57.19,0,0,1-.85-9.87,51.7,51.7,0,0,1,1-10.3,46,46,0,0,1,3-9.5,37.88,37.88,0,0,1,5-8.2,31.71,31.71,0,0,1,15.53-10.62,34.26,34.26,0,0,1,10.4-1.51c1.85,0,3.55.05,5.08.14a36,36,0,0,1,4.29.52,23.1,23.1,0,0,1,3.79,1,28.72,28.72,0,0,1,3.61,1.58,37.3,37.3,0,0,1,3.79,2.3q1.95,1.34,4.29,3.15l-7.08,9.76a48.25,48.25,0,0,0-4.71-3.88,23.28,23.28,0,0,0-4.3-2.44,19.19,19.19,0,0,0-4.39-1.27,32.53,32.53,0,0,0-5.06-.36,16.85,16.85,0,0,0-8.59,2.17,19.09,19.09,0,0,0-6.32,6,28.07,28.07,0,0,0-3.88,8.88,43.66,43.66,0,0,0-1.32,11,58,58,0,0,0,1.15,11.75,32.31,32.31,0,0,0,3.63,9.86,19.82,19.82,0,0,0,6.42,6.81A17,17,0,0,0,437,428.6c1,0,2.09-.05,3.25-.15s2.32-.23,3.49-.41,2.32-.39,3.44-.64,2.18-.49,3.15-.75V400.82h13.43Z"/><path d="M499.26,361.12h12l27.1,76.56H522.55l-8-23.92H491.93l-7.61,23.92h-12.7Zm-4.54,42.82h17.43l-8.5-27.63Z"/><path d="M590.91,361.17h15.72l-27.14,76.51H567l-25.24-76.51h14.75l17.18,57.08Z"/><path d="M658.93,371.08H629V392h23.83v9.86H629v25.88h31.2v9.91H615.57V361.17h43.36Z"/><path d="M671.29,437.68V361.17h13.43v30.57L711,361.17h15.38l-33.45,36.62L728,437.68H711.42l-26.7-30.56v30.56Z"/><path d="M809.33,397.84a52.7,52.7,0,0,1-1.15,11.08,46.25,46.25,0,0,1-3.32,9.94,39.66,39.66,0,0,1-5.27,8.37,34.36,34.36,0,0,1-7,6.45,31.55,31.55,0,0,1-18.23,5.61,35.31,35.31,0,0,1-14.77-2.93,30.42,30.42,0,0,1-10.94-8.25,36.67,36.67,0,0,1-6.81-12.77,54.41,54.41,0,0,1-2.35-16.48,50.12,50.12,0,0,1,2.44-16,37,37,0,0,1,7-12.55,31.16,31.16,0,0,1,11.06-8.2,35.26,35.26,0,0,1,14.67-2.93,35.84,35.84,0,0,1,14,2.66,30.84,30.84,0,0,1,11,7.64,35.07,35.07,0,0,1,7.15,12.16A47.77,47.77,0,0,1,809.33,397.84Zm-14.16,1.22a46.53,46.53,0,0,0-1.44-12,29.31,29.31,0,0,0-4.13-9.25,19.32,19.32,0,0,0-6.49-6,17.22,17.22,0,0,0-8.55-2.13,18,18,0,0,0-8.47,2,19.11,19.11,0,0,0-6.59,5.73,28.56,28.56,0,0,0-4.3,9,42.2,42.2,0,0,0-1.54,11.77,53.53,53.53,0,0,0,1.3,12.18,31.67,31.67,0,0,0,3.85,9.69,19.14,19.14,0,0,0,6.38,6.4,16.7,16.7,0,0,0,8.79,2.3,16.45,16.45,0,0,0,8.91-2.47,21.89,21.89,0,0,0,6.66-6.59,32.2,32.2,0,0,0,4.18-9.5A43,43,0,0,0,795.17,399.06Z"/><path d="M836.23,437.68H822.85V361.17h21.68a48.34,48.34,0,0,1,12.65,1.46,24.82,24.82,0,0,1,8.81,4.2,16.82,16.82,0,0,1,5.18,6.64,22.19,22.19,0,0,1,1.68,8.84,28.43,28.43,0,0,1-.8,6.62,20.27,20.27,0,0,1-2.83,6.47,22.09,22.09,0,0,1-5.5,5.61,28,28,0,0,1-8.79,4.1l23.3,32.57H863.14l-20.46-31.3c-.82,0-1.74,0-2.78,0a28.65,28.65,0,0,1-3.62-.4Zm0-41.45c1,.13,2,.21,3.08.24s2.1,0,3.17,0a25.56,25.56,0,0,0,7.18-.93,15.38,15.38,0,0,0,5.37-2.68,11.54,11.54,0,0,0,3.35-4.28,13.59,13.59,0,0,0,1.14-5.68,16.56,16.56,0,0,0-.78-5.42,7.58,7.58,0,0,0-2.73-3.69,13.25,13.25,0,0,0-5.25-2.12,41.71,41.71,0,0,0-8.33-.69h-6.2Z"/><path d="M942.05,371H918.51v66.65H905.08V371H881.6v-9.86h60.45Z"/></g></g><path id="Rectangle_21" data-name="Rectangle 21" class="cls-5" d="M82.69,722.73,566.93,17l161,0Q498.38,369.86,268.82,722.73Z"/></svg>