<svg id="Layer_1" data-name="Layer 1" xmlns="http://www.w3.org/2000/svg" xmlns:xlink="http://www.w3.org/1999/xlink" width="73.01" height="73.63" viewBox="0 0 73.01 73.63"><defs><style>.cls-1{fill:url(#linear-gradient);}.cls-2{fill:url(#linear-gradient-2);}.cls-3{fill:url(#linear-gradient-3);}</style><linearGradient id="linear-gradient" x1="-15.09" y1="833.71" x2="-14.27" y2="834.52" gradientTransform="matrix(64.01, 0, 0, -64.01, 976.05, 53428.63)" gradientUnits="userSpaceOnUse"><stop offset="0" stop-color="#fcc00e"/><stop offset="0.51" stop-color="#e94539"/><stop offset="0.99" stop-color="#833e90"/></linearGradient><linearGradient id="linear-gradient-2" x1="-16.22" y1="833.96" x2="-15.51" y2="834.67" gradientTransform="matrix(32, 0, 0, -32, 544.28, 26734.89)" xlink:href="#linear-gradient"/><linearGradient id="linear-gradient-3" x1="-31.69" y1="836.53" x2="-30.98" y2="837.24" gradientTransform="matrix(4.27, 0, 0, -4.27, 187.4, 3589.78)" xlink:href="#linear-gradient"/></defs><g id="Group_1" data-name="Group 1"><path id="Path_3" data-name="Path 3" class="cls-1" d="M48.51,4.81h-24a20,20,0,0,0-20,20v24a20,20,0,0,0,20,20h24a20,20,0,0,0,20-20v-24A20,20,0,0,0,48.51,4.81Zm14,44a14,14,0,0,1-14,14h-24a14,14,0,0,1-14-14v-24a14,14,0,0,1,14-14h24a14,14,0,0,1,14,14Z"/><path id="Path_4" data-name="Path 4" class="cls-2" d="M36.51,20.81a16,16,0,1,0,16,16A16,16,0,0,0,36.51,20.81Zm0,26a10,10,0,1,1,10-10A10,10,0,0,1,36.51,46.82Z"/><circle id="Ellipse_1" data-name="Ellipse 1" class="cls-3" cx="53.71" cy="19.61" r="2.13"/></g></svg>