<svg id="Layer_1" data-name="Layer 1" xmlns="http://www.w3.org/2000/svg" xmlns:xlink="http://www.w3.org/1999/xlink" width="2240" height="400" viewBox="0 0 2240 400"><defs><style>.cls-1{fill:url(#linear-gradient);}.cls-2{fill:url(#linear-gradient-2);}.cls-3{fill:url(#linear-gradient-3);}.cls-4{fill:url(#linear-gradient-4);}.cls-5{fill:url(#linear-gradient-5);}.cls-6{fill:url(#linear-gradient-6);}.cls-7{fill:url(#linear-gradient-7);}.cls-8{fill:url(#linear-gradient-8);}.cls-9{fill:url(#linear-gradient-9);}.cls-10{fill:url(#linear-gradient-10);}.cls-11{fill:url(#linear-gradient-11);}.cls-12{fill:url(#linear-gradient-12);}</style><linearGradient id="linear-gradient" x1="3.91" y1="268.36" x2="23.93" y2="268.36" gradientTransform="matrix(1, 0, 0, -1, 0, 342.3)" gradientUnits="userSpaceOnUse"><stop offset="0" stop-color="#d3e1ec"/><stop offset="0.52" stop-color="#3592b3"/><stop offset="0.99" stop-color="#216176"/></linearGradient><linearGradient id="linear-gradient-2" x1="23.45" y1="291.13" x2="50.55" y2="291.13" xlink:href="#linear-gradient"/><linearGradient id="linear-gradient-3" x1="52.79" y1="304.68" x2="85.75" y2="304.68" xlink:href="#linear-gradient"/><linearGradient id="linear-gradient-4" x1="89.31" y1="313.16" x2="129.65" y2="313.16" xlink:href="#linear-gradient"/><linearGradient id="linear-gradient-5" x1="177.09" y1="321.34" x2="228.96" y2="321.34" gradientTransform="matrix(0, 0.93, 1, 0, -156.36, -159.4)" xlink:href="#linear-gradient"/><linearGradient id="linear-gradient-6" x1="2.45" y1="166.26" x2="161.85" y2="166.26" gradientTransform="matrix(0.99, 0.14, 0.14, -0.99, -24.05, 341.54)" xlink:href="#linear-gradient"/><linearGradient id="linear-gradient-7" x1="552.9" y1="200.84" x2="572.92" y2="200.84" gradientTransform="translate(940.88 342.3) rotate(180)" xlink:href="#linear-gradient"/><linearGradient id="linear-gradient-8" x1="572.44" y1="223.62" x2="599.54" y2="223.62" gradientTransform="translate(940.88 342.3) rotate(180)" xlink:href="#linear-gradient"/><linearGradient id="linear-gradient-9" x1="601.78" y1="237.17" x2="634.74" y2="237.17" gradientTransform="translate(940.88 342.3) rotate(180)" xlink:href="#linear-gradient"/><linearGradient id="linear-gradient-10" x1="638.3" y1="245.65" x2="678.64" y2="245.65" gradientTransform="translate(940.88 342.3) rotate(180)" xlink:href="#linear-gradient"/><linearGradient id="linear-gradient-11" x1="763.53" y1="406.98" x2="815.41" y2="406.98" gradientTransform="translate(962.69 504.4) rotate(180) scale(0.93 1)" xlink:href="#linear-gradient"/><linearGradient id="linear-gradient-12" x1="550.58" y1="174.42" x2="714.18" y2="174.42" gradientTransform="translate(962.5 341.24) rotate(171.95)" xlink:href="#linear-gradient"/></defs><circle class="cls-1" cx="13.92" cy="73.94" r="10.01"/><circle class="cls-2" cx="37" cy="51.16" r="13.55"/><circle class="cls-3" cx="69.27" cy="37.61" r="16.48"/><circle class="cls-4" cx="109.48" cy="29.13" r="20.17"/><ellipse class="cls-5" cx="164.98" cy="29.92" rx="28.87" ry="24.21" transform="translate(90.96 180.36) rotate(-74.08)"/><path class="cls-6" d="M44.55,278.06C7.39,220.47-14.19,113,40.83,72,77,45,143.32,49,164.25,81.17c18.79,28.85-1.71,76.13-5.59,85.08-13.5,31.12-26.29,28.5-30.83,51.21-7.47,37.3,24.36,57.66,11.61,88.18-4.4,10.57-14.13,22.22-26.6,24.87C82.56,336.93,50.32,287,44.55,278.06Z"/><circle class="cls-7" cx="377.97" cy="141.46" r="10.01"/><circle class="cls-8" cx="354.89" cy="118.68" r="13.55"/><circle class="cls-9" cx="322.62" cy="105.13" r="16.48"/><circle class="cls-10" cx="282.41" cy="96.65" r="20.17"/><ellipse class="cls-11" cx="226.92" cy="97.43" rx="24.21" ry="28.87" transform="translate(-18.02 65.98) rotate(-15.92)"/><path class="cls-12" d="M347.34,345.57c12.29-21.47,26.56-61,12.29-76-3.33-3.51-12.21-9.89-16.67-22.22-1.53-4.22-2.41-6.77-1.24-9.26,3.88-8.21,23.39-1.28,30.86-11.11,2.83-3.7,4.19-10.13,1.86-14.81-6-12-31.83-3.39-43.83-19.13-1.9-2.51-3.71-4.88-3.08-7.41,2.88-11.55,50.68-2.45,54.93-14.2,2.83-7.81-14.29-22.92-31.4-31.95-37.12-19.62-101.19-24.94-123.42,9.21-18.79,28.86,1.71,76.13,5.6,85.09,13.5,31.11,26.28,28.49,30.82,51.2,7.47,37.31-24.35,57.67-11.61,88.18,4.4,10.57,14.14,22.23,26.6,24.87C312.29,405.06,344.72,350.16,347.34,345.57Z"/><path d="M526.44,293.79q-.81-1.89-5.67-16.47L471.36,144.75q-5.94-15.93-18.9-19.71a36.34,36.34,0,0,1-6.75-3q-2.16-1.35-2.16-3,0-3,7.83-3l13.23.27q12.42.54,19.71.54l18.36-.27q3.78-.27,9.18-.27,7.83,0,7.83,3c0,1.26-.77,2.43-2.29,3.51a12.88,12.88,0,0,1-6.62,1.89q-17.55,1.89-17.55,10.53a26.51,26.51,0,0,0,1.35,8.91q1.35,3.78,1.62,4.32l38.88,102.6q.54,1.35,1.35,1.35t1.62-1.62l37-97.2a35.77,35.77,0,0,0,2.7-12.69q0-7.29-4.18-11.2A19.14,19.14,0,0,0,562.35,125a16.67,16.67,0,0,1-6.48-2c-1.62-1-2.43-2.12-2.43-3.38q0-3,7.83-3l26.73.27q6.48,0,18.36-.54l12.42-.27q7.83,0,7.83,3,0,3.51-8.91,5.4a34.06,34.06,0,0,0-16.06,8.78A45.35,45.35,0,0,0,591.24,148L540.48,271.11l-1.89,5.13a143,143,0,0,1-6.48,17.55,2.77,2.77,0,0,1-2.7,1.89A3,3,0,0,1,526.44,293.79Z"/><path d="M619.86,292.58a30.75,30.75,0,0,1-8.5-9.18A20.18,20.18,0,0,1,608,273q0-8.37,4.46-13.23t14.71-9.18l27.54-11.34q5.13-2.16,6.21-3.78t1.35-7l.54-17.28a17.13,17.13,0,0,0-4-12.29q-4.32-5-11.88-5a25.48,25.48,0,0,0-8.1,1.35,21.68,21.68,0,0,0-6.75,3.51q-2.7,1.89-2.7,7.83l.27,4.86q0,2.16-6.88,5.81t-10.94,3.64a3.21,3.21,0,0,1-2.16-.68,2.15,2.15,0,0,1-.81-1.75,19,19,0,0,1,2.84-9.31,34.62,34.62,0,0,1,8-9.32,82.79,82.79,0,0,1,20.66-13.77q11.47-5.4,19.57-5.4a20.92,20.92,0,0,1,16.07,6.89q6.35,6.87,6.07,17.14l-1.35,64.8q-.27,5.67,2.43,9.18a8.72,8.72,0,0,0,7.29,3.51q6.75,0,10-3a3.7,3.7,0,0,1,2.16-1.35,2.79,2.79,0,0,1,3,3,7.26,7.26,0,0,1-.81,2.84,10.67,10.67,0,0,1-2.16,3.1,37.22,37.22,0,0,1-9.31,6.89,20.71,20.71,0,0,1-9.32,2.56q-12.42,0-19.71-14h-.81a69.51,69.51,0,0,1-17,10.66,43.13,43.13,0,0,1-16.74,3.38Q625,296.22,619.86,292.58Zm38.34-15.8a10.17,10.17,0,0,0,2.43-4,28.76,28.76,0,0,0,1.08-7l.54-13.23v-1.62a6.58,6.58,0,0,0-.54-3.1,2,2,0,0,0-1.89-.95,18.89,18.89,0,0,0-5.4,1.35Q640.92,253,635,258.42T629,269q0,6.75,3.92,10.53a12.94,12.94,0,0,0,9.31,3.78A21.65,21.65,0,0,0,658.2,276.78Z"/><path d="M710.85,290.82a3.13,3.13,0,0,1,1.48-2.83,22.78,22.78,0,0,1,4.73-2,41.45,41.45,0,0,0,8.77-3.64q2.83-1.76,2.84-6.62V139.62q0-17-12.42-19.71a2.47,2.47,0,0,1-1.62-1.21,4.58,4.58,0,0,1-.54-2.3q0-2.7,1.89-3.24a150.94,150.94,0,0,0,24-8.1l6.48-2.43a4.14,4.14,0,0,1,1.62-.54,1.13,1.13,0,0,1,.94.68,2.32,2.32,0,0,1,.41,1.21q0,1.62-1,10.26t-.94,26.46v135q0,4.86,2.83,6.62a41.57,41.57,0,0,0,8.78,3.64,22.65,22.65,0,0,1,4.72,2,3.13,3.13,0,0,1,1.49,2.83q0,2.43-5.4,2.43a68.71,68.71,0,0,1-11.61-.81q-5.94-.54-10.26-.54t-10.26.54a65.83,65.83,0,0,1-11.61.81Q710.85,293.25,710.85,290.82Z"/><path d="M817.23,292.71c-1.08-.36-2.21-.72-3.38-1.08s-2.39-.72-3.64-1.08q-2.43-.54-5.4-1.35a20.15,20.15,0,0,0-3.78-.81c-1.62,0-3.61,1.17-5.94,3.51a3.77,3.77,0,0,1-2.43,1.35,4.16,4.16,0,0,1-2.57-.94,2.83,2.83,0,0,1-1.21-2.3,34.85,34.85,0,0,1,.81-6.48,105.1,105.1,0,0,0,1.08-13V139.62a21.6,21.6,0,0,0-3.38-12.15,20,20,0,0,0-9-7.56q-3.51-1.89-3.51-4t3.24-2.7a86.3,86.3,0,0,0,14-4.45q9.45-3.64,14.31-5.81a6.22,6.22,0,0,1,2.43-.81,1.56,1.56,0,0,1,1.08.54,1.83,1.83,0,0,1,.54,1.35q0,.81-.41,8.78t-.4,19.57v55.35a27.66,27.66,0,0,0,.54,6.89,2.55,2.55,0,0,0,1.89,2,71.24,71.24,0,0,1,19.44-11.47q11.07-4.45,20-4.46a45,45,0,0,1,24.57,7,50.16,50.16,0,0,1,17.55,19.17,56.46,56.46,0,0,1,6.48,27q0,18.36-7.56,32.53a54.48,54.48,0,0,1-21.06,22q-13.5,7.83-31,7.83A89.82,89.82,0,0,1,817.23,292.71Zm53.59-18.5q9-13.62,9-34.42a62.23,62.23,0,0,0-4.19-22.14,45,45,0,0,0-12.55-18.36Q854.76,192,842.61,192q-19.71,0-32.94,12.42V256.8q0,13.77,11.07,22.41a40.91,40.91,0,0,0,25.92,8.64Q861.78,287.85,870.82,274.21Z"/><path d="M910.24,366.69q-3.91-2.7-3.91-8.37a14.81,14.81,0,0,1,2.43-8.64,7.52,7.52,0,0,1,6.48-3.51,28.29,28.29,0,0,1,5.8.81,28.06,28.06,0,0,0,5,.81,5.81,5.81,0,0,0,5.13-3,189.45,189.45,0,0,0,11.34-20.65q6.21-12.84,11.61-27.41a20,20,0,0,0,.81-6.21,23.41,23.41,0,0,0-1.08-7.83l-31.32-79.11q-4.59-11.07-12.15-13.23a22.86,22.86,0,0,1-4.73-2,3.14,3.14,0,0,1-1.48-2.84q0-2.43,5.4-2.43a50.56,50.56,0,0,1,10.53.81,83.32,83.32,0,0,0,9.18.54,85.58,85.58,0,0,0,9.45-.54,59.23,59.23,0,0,1,11.07-.81,8.58,8.58,0,0,1,3.64.81c1.17.54,1.76,1.26,1.76,2.16q0,1.89-2.57,3.51a21.29,21.29,0,0,1-5.26,2.43,6.65,6.65,0,0,0-4.19,2.84,11.36,11.36,0,0,0-1.21,5.8q0,2.43,2.16,7.56l21.87,54q.54,1.62,1.62,1.62.81,0,1.35-1.62l18.63-49.41a28.25,28.25,0,0,0,1.48-5,24.86,24.86,0,0,0,.68-5q0-4.59-1.35-6.88a8,8,0,0,0-4-3.38q-7.83-3.51-7.83-6.48c0-.9.58-1.62,1.75-2.16a8.63,8.63,0,0,1,3.65-.81q1.35,0,6.21.54,9.72.81,13,.81a87.49,87.49,0,0,0,10.26-.81,35.06,35.06,0,0,1,5.67-.54q5.4,0,5.4,2.43a3.15,3.15,0,0,1-1.49,2.84,22.73,22.73,0,0,1-4.72,2q-4.05,1.35-8.64,6.48a40.82,40.82,0,0,0-7.29,11.61L963.57,296l-4.05,10q-16.74,40.5-21.87,52.38a18.12,18.12,0,0,1-7,8.24,19.62,19.62,0,0,1-10.53,2.83A17,17,0,0,1,910.24,366.69Z"/><path d="M1083.17,290.82a3.29,3.29,0,0,1,2.16-3,26.26,26.26,0,0,1,6.75-1.89q10.26-1.89,14.18-6.34t3.91-14.18V151.5q0-13-3.37-19.17t-13.1-7.83q-8.91-1.62-8.91-5.4,0-3,7.83-3,10,0,24,.54l22.41.27h34a106.43,106.43,0,0,0,17.28-1.62,77.08,77.08,0,0,1,9.45-1.08q4.59,0,4.86,2.43.54,4,.95,13.23t.4,14q0,5.67-2.43,5.67a3.59,3.59,0,0,1-2.43-.94,6,6,0,0,1-1.62-2.3q-2.43-9.18-6.21-13.23-6.48-7.29-18.09-7.29H1141q-5.67,0-7.29,3.38t-1.89,10.12q-.27,6.75-.27,27,0,19.17.27,25.65,0,5.94,2.7,5.94,7.29,0,19.71-.54l11.61-.27a16.67,16.67,0,0,0,10-3.1,19.3,19.3,0,0,0,6.48-8,12.52,12.52,0,0,1,2.3-2.83c1.17-1.17,2-1.76,2.56-1.76a3.73,3.73,0,0,1,2.43,1.35,3.29,3.29,0,0,1,1.08,3q-.81,9.18-.81,14.85,0,6.48.81,18.36,0,4.59-2.43,4.59a5,5,0,0,1-4-2,11.06,11.06,0,0,1-2.16-4.19q-1.89-5.67-5.4-8.23a12.2,12.2,0,0,0-7.29-2.57l-13.5-.27q-11.88,0-17.55.54-6.48.54-6.48,6.75,0,33.75.81,51.57.54,9.18,4.32,14.17t13.5,6.62a26.26,26.26,0,0,1,6.75,1.89,3.29,3.29,0,0,1,2.16,3q0,3-7.83,3a103.53,103.53,0,0,1-15.66-1.08,66,66,0,0,0-10.8-.81q-4.59,0-9.31.41t-6.89.4a173.3,173.3,0,0,1-17.82,1.08Q1083.17,293.79,1083.17,290.82Z"/><path d="M1241.26,289.2a51.61,51.61,0,0,1-19.44-19.44,54.7,54.7,0,0,1-7.16-27.81,59.33,59.33,0,0,1,8-29.16,65.21,65.21,0,0,1,21.6-23.22,53,53,0,0,1,29.56-8.91,54.59,54.59,0,0,1,28.08,7.43,55.61,55.61,0,0,1,20.12,20,51.88,51.88,0,0,1,7.42,26.86,66.68,66.68,0,0,1-7,30.24,55,55,0,0,1-20.79,22.54q-13.77,8.51-33.21,8.51A53.71,53.71,0,0,1,1241.26,289.2Zm60.61-15.93q5.4-10.53,5.4-31.86a67,67,0,0,0-4.86-25.11,50.61,50.61,0,0,0-13.5-19.71A29.09,29.09,0,0,0,1269.2,189a34.13,34.13,0,0,0-13.5,2.43,26.12,26.12,0,0,0-10.26,8.37,36.46,36.46,0,0,0-6.75,15.26,101.54,101.54,0,0,0-1.89,20.65,67.42,67.42,0,0,0,4.86,25.52A50.3,50.3,0,0,0,1255,280.7a28.2,28.2,0,0,0,19,7.42Q1294.31,288.12,1301.87,273.27Z"/><path d="M1433.5,296.49c-.81-.72-1.22-1.26-1.22-1.62l.54-7a56,56,0,0,0,.81-9.18v-1.62a44.65,44.65,0,0,1-14,13.37,39.14,39.14,0,0,1-21.33,5.8,45,45,0,0,1-26.19-7.83,52.29,52.29,0,0,1-17.55-20.65,60.35,60.35,0,0,1-6.21-26.6,62.26,62.26,0,0,1,7.43-29.83A57.17,57.17,0,0,1,1376.93,189q13.77-8.37,32.13-8.37a61.05,61.05,0,0,1,10.53,1,75.27,75.27,0,0,1,8.91,2,12.85,12.85,0,0,0,3.51.81q.81,0,1.35-1.62a16.38,16.38,0,0,0,.54-4.86V139.62q0-10.26-3.24-14.31t-10.26-5.4q-2.43-.54-2.43-3.51a3.15,3.15,0,0,1,2.16-3.24q14.31-3.51,21.33-6.61t7.83-3.38a10.57,10.57,0,0,1,3.51-.81,1.73,1.73,0,0,1,1.89,1.62c0,1.08-.32,4.5-.94,10.26a264,264,0,0,0-1,26.46v122q0,9.45,1.35,13.5t4.32,4.05a104.88,104.88,0,0,0,11.61-.81h1.35q3.51,0,3.51,2.43a5.19,5.19,0,0,1-1.21,3.38,3.38,3.38,0,0,1-2.57,1.48q-14.58,1.89-31.59,9.18a10.78,10.78,0,0,1-4.32,1.62C1434.89,297.57,1434.31,297.21,1433.5,296.49Zm-11.75-17.95a41.92,41.92,0,0,0,11.88-9.59l.27-48.6a27.73,27.73,0,0,0-4.18-14.31,32.43,32.43,0,0,0-11.88-11.47,33.52,33.52,0,0,0-17.15-4.46,31.3,31.3,0,0,0-14.85,4q-7.56,4.05-13,14t-5.4,26.73q0,18.63,7,29.16t16.2,14.31a45.5,45.5,0,0,0,17.28,3.78A28.78,28.78,0,0,0,1421.75,278.54Z"/><path d="M1480.61,290.28a2.4,2.4,0,0,1,1.22-2.29,18.27,18.27,0,0,1,2.7-1.22c1-.36,1.75-.63,2.29-.81a28,28,0,0,0,8.51-3.91c2.06-1.53,3.1-3.92,3.1-7.16V139.62q0-9.45-2.7-13.77t-9.45-5.94q-2.43-.54-2.43-3.51,0-2.7,2.16-3.24a147.49,147.49,0,0,0,15.26-4.32q6.07-2.16,14.44-5.94a6.22,6.22,0,0,1,2.43-.81q1.62,0,1.62,2.43,0,1.89-1.21,10.94a201,201,0,0,0-1.22,25.24v88.56q0,2.43,1.35,2.43,3.51,0,9.72-5.4,18.36-15.93,28.62-27.81,2.43-2.7,2.43-4,0-2.43-7-4.05a7.8,7.8,0,0,1-2.56-1.08,1.92,1.92,0,0,1-.68-1.62,2.72,2.72,0,0,1,1.62-2.3,8.65,8.65,0,0,1,4.32-.94h13.23q3.78,0,15.12-1.89a48.5,48.5,0,0,1,9.45-1.35q3.78,0,3.78,2.7,0,3-6.75,4.86-7.56,2.16-17.82,8.37-2.43,1.62-13.36,10.67t-21.2,17.95a4.42,4.42,0,0,0-1.62,2.7,2.59,2.59,0,0,0,.81,1.89q9.18,11.34,21.47,24.3T1576.46,273a47.25,47.25,0,0,0,9.86,7.42,61.6,61.6,0,0,0,10.39,5c.72.18,1.84.54,3.38,1.08a16.54,16.54,0,0,1,3.51,1.62,2.48,2.48,0,0,1,1.21,2.16q0,3-5.4,3l-21.87-.27q-18.36-.54-28.62-.54-4.86,0-4.86-2.43,0-2.7,4.59-4.32a16.79,16.79,0,0,0,5.4-2.56,4.49,4.49,0,0,0,1.89-3.65q0-1.35-1.89-3.78l-32.67-37q-1.62-1.89-2.7-1.89-1.35,0-1.35,1.89-.27,5.13-.27,17.28,0,12.69.27,18.9,0,5.13,2.43,7.43a17.14,17.14,0,0,0,7,3.64c.54.18,1.39.45,2.57.81a7.72,7.72,0,0,1,2.7,1.35,2.73,2.73,0,0,1,.94,2.16c0,1.08-.72,1.85-2.16,2.3a13.93,13.93,0,0,1-4,.67,44.83,44.83,0,0,1-10-.81,71.8,71.8,0,0,0-8.91-.54q-4.59,0-10,.54a59.23,59.23,0,0,1-11.07.81Q1480.61,293.25,1480.61,290.28Z"/><path d="M1607.24,290.82a3.13,3.13,0,0,1,1.48-2.83,22.78,22.78,0,0,1,4.73-2,41.45,41.45,0,0,0,8.77-3.64q2.83-1.76,2.84-6.62V139.62q0-17-12.42-19.71a2.47,2.47,0,0,1-1.62-1.21,4.58,4.58,0,0,1-.54-2.3q0-2.7,1.89-3.24a150.94,150.94,0,0,0,24-8.1l6.48-2.43a4.14,4.14,0,0,1,1.62-.54,1.14,1.14,0,0,1,.94.68,2.42,2.42,0,0,1,.41,1.21q0,1.62-.95,10.26T1644,140.7v135q0,4.86,2.83,6.62a41.57,41.57,0,0,0,8.78,3.64,22.65,22.65,0,0,1,4.72,2,3.13,3.13,0,0,1,1.49,2.83q0,2.43-5.4,2.43a68.71,68.71,0,0,1-11.61-.81q-5.94-.54-10.26-.54t-10.26.54a65.83,65.83,0,0,1-11.61.81Q1607.24,293.25,1607.24,290.82Z"/><path d="M1673.39,290.28a2.83,2.83,0,0,1,1.48-2.7,21.45,21.45,0,0,1,4.73-1.62q6.2-1.62,8.9-3.64c1.8-1.36,2.7-3.56,2.7-6.62V217.11q0-17.82-12.14-19.71c-1.81-.18-2.7-1.35-2.7-3.51,0-2,.8-3.06,2.43-3.24a68.19,68.19,0,0,0,28.35-13.5c1.61-1.26,2.87-1.89,3.77-1.89,1.09,0,1.63.45,1.63,1.35q0,3-.81,10.26-.29,3.24-1,12t-.67,14.18V275.7q0,4.32,2.83,6.48a26.16,26.16,0,0,0,8.77,3.78,21.45,21.45,0,0,1,4.73,1.62,2.83,2.83,0,0,1,1.48,2.7q0,3-5.39,3a66.58,66.58,0,0,1-11.34-.81q-6-.54-10.53-.54-4.34,0-10.26.54a65.91,65.91,0,0,1-11.61.81C1675.18,293.25,1673.39,292.26,1673.39,290.28Zm17.41-141.07a13,13,0,0,1-3.91-9.59,13.35,13.35,0,0,1,3.91-9.85,13.05,13.05,0,0,1,9.59-3.92,13.4,13.4,0,0,1,13.77,13.77,13.05,13.05,0,0,1-3.92,9.59,13.36,13.36,0,0,1-9.85,3.91A13,13,0,0,1,1690.8,149.21Z"/><path d="M1739.53,290.28a2.61,2.61,0,0,1,1.35-2.57,37.92,37.92,0,0,1,4.86-1.75,26.52,26.52,0,0,0,8.64-3.37q3-2,3-6.89v-58q0-8.64-1.89-13.23t-8.1-6.21a3.39,3.39,0,0,1-2.7-3.51q0-3,2.43-3.24a59.87,59.87,0,0,0,14.18-5.4,127.17,127.17,0,0,0,12.82-8.37,5.84,5.84,0,0,1,3-1.35q1.35,0,1.35,1.89l-.54,5.67c-.18,1.44-.36,3.2-.54,5.27s-.27,4.18-.27,6.34q0,2.7.54,3.24a68.58,68.58,0,0,1,20.25-13.63,59,59,0,0,1,23.22-4.46q13,0,21.74,10.8t8.77,26.73V275.7q0,4.86,2.84,6.62a41.45,41.45,0,0,0,8.77,3.64,22.78,22.78,0,0,1,4.73,2,3.13,3.13,0,0,1,1.48,2.83q0,2.43-5.4,2.43a65.83,65.83,0,0,1-11.61-.81q-5.4-.54-10-.54-4.32,0-10.26.54a67.84,67.84,0,0,1-11.88.81q-5.4,0-5.4-2.43a3.13,3.13,0,0,1,1.49-2.83,22.65,22.65,0,0,1,4.72-2,41.57,41.57,0,0,0,8.78-3.64q2.84-1.76,2.83-6.62V219q0-11.61-6.61-18.36t-17.69-7a46.12,46.12,0,0,0-30,10.8,8.41,8.41,0,0,0-2.16,6.21V275.7q0,4.86,3,6.89a26.52,26.52,0,0,0,8.64,3.37,17.28,17.28,0,0,1,4.73,1.75,2.92,2.92,0,0,1,1.48,2.57q0,3-5.4,3a68.71,68.71,0,0,1-11.61-.81q-5.94-.54-10.26-.54t-10.26.54a65.83,65.83,0,0,1-11.61.81Q1739.53,293.25,1739.53,290.28Z"/><path d="M1882.09,290.28a2.83,2.83,0,0,1,1.49-2.7,21.33,21.33,0,0,1,4.72-1.62q6.21-1.62,8.91-3.64c1.8-1.36,2.7-3.56,2.7-6.62V217.11q0-17.82-12.15-19.71-2.7-.27-2.7-3.51,0-3,2.43-3.24a68.07,68.07,0,0,0,28.35-13.5q2.43-1.89,3.78-1.89,1.62,0,1.62,1.35,0,3-.81,10.26-.27,3.24-.94,12t-.68,14.18V275.7a7.64,7.64,0,0,0,2.84,6.48,26.16,26.16,0,0,0,8.77,3.78,21.45,21.45,0,0,1,4.73,1.62,2.83,2.83,0,0,1,1.48,2.7q0,3-5.4,3a66.74,66.74,0,0,1-11.34-.81q-5.94-.54-10.53-.54-4.32,0-10.26.54a65.83,65.83,0,0,1-11.61.81Q1882.09,293.25,1882.09,290.28Zm17.42-141.07a13.05,13.05,0,0,1-3.92-9.59,13.35,13.35,0,0,1,3.92-9.85,13,13,0,0,1,9.58-3.92,13.39,13.39,0,0,1,13.77,13.77,13,13,0,0,1-3.91,9.59,13.37,13.37,0,0,1-9.86,3.91A13,13,0,0,1,1899.51,149.21Z"/><path d="M1946.89,290.28a2.4,2.4,0,0,1,1.22-2.29,18.75,18.75,0,0,1,2.7-1.22c1-.36,1.75-.63,2.29-.81a27.85,27.85,0,0,0,8.51-3.91c2.06-1.53,3.1-3.92,3.1-7.16V139.62q0-9.45-2.7-13.77t-9.45-5.94q-2.43-.54-2.43-3.51,0-2.7,2.16-3.24a147.49,147.49,0,0,0,15.26-4.32q6.08-2.16,14.44-5.94a6.22,6.22,0,0,1,2.43-.81q1.62,0,1.62,2.43,0,1.89-1.21,10.94a201,201,0,0,0-1.22,25.24v88.56q0,2.43,1.35,2.43,3.51,0,9.72-5.4,18.36-15.93,28.62-27.81,2.43-2.7,2.43-4,0-2.43-7-4.05a7.8,7.8,0,0,1-2.56-1.08,2,2,0,0,1-.68-1.62,2.72,2.72,0,0,1,1.62-2.3,8.65,8.65,0,0,1,4.32-.94h13.23q3.78,0,15.12-1.89a48.5,48.5,0,0,1,9.45-1.35q3.78,0,3.78,2.7,0,3-6.75,4.86-7.56,2.16-17.82,8.37-2.43,1.62-13.36,10.67t-21.2,17.95a4.42,4.42,0,0,0-1.62,2.7,2.59,2.59,0,0,0,.81,1.89q9.18,11.34,21.47,24.3T2042.74,273a47.25,47.25,0,0,0,9.86,7.42,61.6,61.6,0,0,0,10.39,5c.72.18,1.84.54,3.38,1.08a16.54,16.54,0,0,1,3.51,1.62,2.48,2.48,0,0,1,1.21,2.16q0,3-5.4,3l-21.87-.27q-18.36-.54-28.62-.54-4.86,0-4.86-2.43,0-2.7,4.59-4.32a16.79,16.79,0,0,0,5.4-2.56,4.49,4.49,0,0,0,1.89-3.65q0-1.35-1.89-3.78l-32.67-37q-1.62-1.89-2.7-1.89-1.35,0-1.35,1.89-.27,5.13-.27,17.28,0,12.69.27,18.9,0,5.13,2.43,7.43a17.14,17.14,0,0,0,7,3.64c.54.18,1.39.45,2.57.81a7.72,7.72,0,0,1,2.7,1.35,2.73,2.73,0,0,1,.94,2.16c0,1.08-.72,1.85-2.16,2.3a13.93,13.93,0,0,1-4,.67,44.83,44.83,0,0,1-10-.81,71.8,71.8,0,0,0-8.91-.54q-4.59,0-10,.54a59.23,59.23,0,0,1-11.07.81Q1946.89,293.25,1946.89,290.28Z"/></svg>